<svg width="1400" height="1000" xmlns="http://www.w3.org/2000/svg">
  <defs>
    <!-- Gradients -->
    <linearGradient id="prepGradient" x1="0%" y1="0%" x2="100%" y2="100%">
      <stop offset="0%" style="stop-color:#9E9E9E;stop-opacity:1" />
      <stop offset="100%" style="stop-color:#757575;stop-opacity:1" />
    </linearGradient>
    <linearGradient id="researchGradient" x1="0%" y1="0%" x2="100%" y2="100%">
      <stop offset="0%" style="stop-color:#4A90E2;stop-opacity:1" />
      <stop offset="100%" style="stop-color:#357ABD;stop-opacity:1" />
    </linearGradient>
    <linearGradient id="strategyGradient" x1="0%" y1="0%" x2="100%" y2="100%">
      <stop offset="0%" style="stop-color:#50E3C2;stop-opacity:1" />
      <stop offset="100%" style="stop-color:#3BC4A0;stop-opacity:1" />
    </linearGradient>
    <linearGradient id="designGradient" x1="0%" y1="0%" x2="100%" y2="100%">
      <stop offset="0%" style="stop-color:#F5A623;stop-opacity:1" />
      <stop offset="100%" style="stop-color:#D4880F;stop-opacity:1" />
    </linearGradient>
    <linearGradient id="interactionGradient" x1="0%" y1="0%" x2="100%" y2="100%">
      <stop offset="0%" style="stop-color:#E91E63;stop-opacity:1" />
      <stop offset="100%" style="stop-color:#C2185B;stop-opacity:1" />
    </linearGradient>
    <linearGradient id="systemGradient" x1="0%" y1="0%" x2="100%" y2="100%">
      <stop offset="0%" style="stop-color:#9C27B0;stop-opacity:1" />
      <stop offset="100%" style="stop-color:#7B1FA2;stop-opacity:1" />
    </linearGradient>
    <linearGradient id="prototypeGradient" x1="0%" y1="0%" x2="100%" y2="100%">
      <stop offset="0%" style="stop-color:#00BCD4;stop-opacity:1" />
      <stop offset="100%" style="stop-color:#0097A7;stop-opacity:1" />
    </linearGradient>
    <linearGradient id="opsGradient" x1="0%" y1="0%" x2="100%" y2="100%">
      <stop offset="0%" style="stop-color:#607D8B;stop-opacity:1" />
      <stop offset="100%" style="stop-color:#455A64;stop-opacity:1" />
    </linearGradient>
    
    <!-- Shadow filter -->
    <filter id="shadow" x="-20%" y="-20%" width="140%" height="140%">
      <feDropShadow dx="2" dy="2" stdDeviation="3" flood-color="#000" flood-opacity="0.2"/>
    </filter>
    
    <!-- Arrow marker -->
    <marker id="arrowhead" markerWidth="10" markerHeight="7" refX="9" refY="3.5" orient="auto">
      <polygon points="0 0, 10 3.5, 0 7" fill="#666"/>
    </marker>
  </defs>

  <!-- Background -->
  <rect width="100%" height="100%" fill="#f8f9fa"/>

  <!-- Title -->
  <text x="700" y="40" font-family="Arial, sans-serif" font-size="28" font-weight="bold" text-anchor="middle" fill="#333">
    PRD to Prototype Workflow
  </text>
  <text x="700" y="70" font-family="Arial, sans-serif" font-size="16" text-anchor="middle" fill="#666">
    从产品需求文档到可交互高保真原型的完整流程
  </text>

  <!-- PRD Input -->
  <g transform="translate(50, 100)">
    <rect x="0" y="0" width="200" height="60" rx="10" fill="#333" filter="url(#shadow)"/>
    <text x="100" y="25" font-family="Arial, sans-serif" font-size="14" font-weight="bold" text-anchor="middle" fill="white">PRD</text>
    <text x="100" y="45" font-family="Arial, sans-serif" font-size="12" text-anchor="middle" fill="#ccc">产品需求文档</text>
  </g>

  <!-- Arrow from PRD -->
  <line x1="250" y1="130" x2="300" y2="130" stroke="#666" stroke-width="2" marker-end="url(#arrowhead)"/>

  <!-- Stage 0: Preparation -->
  <g transform="translate(300, 80)">
    <rect x="0" y="0" width="280" height="100" rx="10" fill="#f5f5f5" stroke="#9E9E9E" stroke-width="2" filter="url(#shadow)"/>
    <rect x="0" y="0" width="280" height="40" rx="10" fill="url(#prepGradient)"/>
    <text x="140" y="27" font-family="Arial, sans-serif" font-size="16" font-weight="bold" text-anchor="middle" fill="white">阶段0: 准备阶段</text>
    
    <!-- Description -->
    <g transform="translate(20, 55)">
      <text x="0" y="0" font-family="Arial, sans-serif" font-size="11" fill="#666">
        <tspan x="0" dy="0">理解PRD，确定设计范围</tspan>
        <tspan x="0" dy="16">识别关键用户场景</tspan>
        <tspan x="0" dy="16">确定交付物类型</tspan>
      </text>
    </g>
  </g>

  <!-- Arrow -->
  <line x1="580" y1="130" x2="630" y2="130" stroke="#666" stroke-width="2" marker-end="url(#arrowhead)"/>

  <!-- Stage 1: Research -->
  <g transform="translate(630, 80)">
    <rect x="0" y="0" width="280" height="150" rx="10" fill="#e8f4f8" stroke="#4A90E2" stroke-width="2" filter="url(#shadow)"/>
    <rect x="0" y="0" width="280" height="40" rx="10" fill="url(#researchGradient)"/>
    <text x="140" y="27" font-family="Arial, sans-serif" font-size="16" font-weight="bold" text-anchor="middle" fill="white">阶段1: 研究阶段</text>
    
    <!-- Skills -->
    <g transform="translate(20, 55)">
      <rect x="0" y="0" width="240" height="30" rx="5" fill="white" stroke="#4A90E2" stroke-width="1"/>
      <rect x="5" y="5" width="20" height="20" rx="3" fill="#4A90E2"/>
      <text x="15" y="19" font-family="Arial, sans-serif" font-size="10" font-weight="bold" fill="white" text-anchor="middle">1</text>
      <text x="130" y="20" font-family="Arial, sans-serif" font-size="12" text-anchor="middle" fill="#333">user-persona</text>
    </g>
    <g transform="translate(20, 95)">
      <rect x="0" y="0" width="240" height="30" rx="5" fill="white" stroke="#4A90E2" stroke-width="1"/>
      <rect x="5" y="5" width="20" height="20" rx="3" fill="#4A90E2"/>
      <text x="15" y="19" font-family="Arial, sans-serif" font-size="10" font-weight="bold" fill="white" text-anchor="middle">1</text>
      <text x="130" y="20" font-family="Arial, sans-serif" font-size="12" text-anchor="middle" fill="#333">journey-map</text>
    </g>
  </g>

  <!-- Arrow down -->
  <line x1="770" y1="230" x2="770" y2="270" stroke="#666" stroke-width="2" marker-end="url(#arrowhead)"/>

  <!-- Stage 2: Strategy -->
  <g transform="translate(630, 270)">
    <rect x="0" y="0" width="280" height="150" rx="10" fill="#e8f8f0" stroke="#50E3C2" stroke-width="2" filter="url(#shadow)"/>
    <rect x="0" y="0" width="280" height="40" rx="10" fill="url(#strategyGradient)"/>
    <text x="140" y="27" font-family="Arial, sans-serif" font-size="16" font-weight="bold" text-anchor="middle" fill="white">阶段2: 策略阶段</text>
    
    <!-- Skills -->
    <g transform="translate(20, 55)">
      <rect x="0" y="0" width="240" height="30" rx="5" fill="white" stroke="#50E3C2" stroke-width="1"/>
      <rect x="5" y="5" width="20" height="20" rx="3" fill="#4A90E2"/>
      <text x="15" y="19" font-family="Arial, sans-serif" font-size="10" font-weight="bold" fill="white" text-anchor="middle">1</text>
      <text x="130" y="20" font-family="Arial, sans-serif" font-size="12" text-anchor="middle" fill="#333">competitive-analysis</text>
    </g>
    <g transform="translate(20, 95)">
      <rect x="0" y="0" width="240" height="30" rx="5" fill="white" stroke="#50E3C2" stroke-width="1"/>
      <rect x="5" y="5" width="20" height="20" rx="3" fill="#4A90E2"/>
      <text x="15" y="19" font-family="Arial, sans-serif" font-size="10" font-weight="bold" fill="white" text-anchor="middle">1</text>
      <text x="130" y="20" font-family="Arial, sans-serif" font-size="12" text-anchor="middle" fill="#333">design-principles</text>
    </g>
  </g>

  <!-- Arrow left -->
  <line x1="630" y1="345" x2="580" y2="345" stroke="#666" stroke-width="2" marker-end="url(#arrowhead)"/>

  <!-- Stage 3: Design -->
  <g transform="translate(300, 270)">
    <rect x="0" y="0" width="280" height="150" rx="10" fill="#fef5e6" stroke="#F5A623" stroke-width="2" filter="url(#shadow)"/>
    <rect x="0" y="0" width="280" height="40" rx="10" fill="url(#designGradient)"/>
    <text x="140" y="27" font-family="Arial, sans-serif" font-size="16" font-weight="bold" text-anchor="middle" fill="white">阶段3: 设计阶段</text>
    
    <!-- Skills -->
    <g transform="translate(20, 55)">
      <rect x="0" y="0" width="240" height="30" rx="5" fill="white" stroke="#F5A623" stroke-width="1"/>
      <rect x="5" y="5" width="20" height="20" rx="3" fill="#F5A623"/>
      <text x="15" y="19" font-family="Arial, sans-serif" font-size="10" font-weight="bold" fill="white" text-anchor="middle">4</text>
      <text x="130" y="20" font-family="Arial, sans-serif" font-size="12" text-anchor="middle" fill="#333">design-tokens</text>
    </g>
    <g transform="translate(20, 95)">
      <rect x="0" y="0" width="240" height="30" rx="5" fill="white" stroke="#F5A623" stroke-width="1"/>
      <rect x="5" y="5" width="20" height="20" rx="3" fill="#F5A623"/>
      <text x="15" y="19" font-family="Arial, sans-serif" font-size="10" font-weight="bold" fill="white" text-anchor="middle">4</text>
      <text x="130" y="20" font-family="Arial, sans-serif" font-size="12" text-anchor="middle" fill="#333">layout-grid</text>
    </g>
  </g>

  <!-- Arrow down -->
  <line x1="440" y1="420" x2="440" y2="460" stroke="#666" stroke-width="2" marker-end="url(#arrowhead)"/>

  <!-- Stage 4: Interaction -->
  <g transform="translate(300, 460)">
    <rect x="0" y="0" width="280" height="150" rx="10" fill="#fce4ec" stroke="#E91E63" stroke-width="2" filter="url(#shadow)"/>
    <rect x="0" y="0" width="280" height="40" rx="10" fill="url(#interactionGradient)"/>
    <text x="140" y="27" font-family="Arial, sans-serif" font-size="16" font-weight="bold" text-anchor="middle" fill="white">阶段4: 交互阶段</text>
    
    <!-- Skills -->
    <g transform="translate(20, 55)">
      <rect x="0" y="0" width="240" height="30" rx="5" fill="white" stroke="#E91E63" stroke-width="1"/>
      <rect x="5" y="5" width="20" height="20" rx="3" fill="#F5A623"/>
      <text x="15" y="19" font-family="Arial, sans-serif" font-size="10" font-weight="bold" fill="white" text-anchor="middle">4</text>
      <text x="130" y="20" font-family="Arial, sans-serif" font-size="12" text-anchor="middle" fill="#333">state-machine</text>
    </g>
    <g transform="translate(20, 95)">
      <rect x="0" y="0" width="240" height="30" rx="5" fill="white" stroke="#E91E63" stroke-width="1"/>
      <rect x="5" y="5" width="20" height="20" rx="3" fill="#F5A623"/>
      <text x="15" y="19" font-family="Arial, sans-serif" font-size="10" font-weight="bold" fill="white" text-anchor="middle">4</text>
      <text x="130" y="20" font-family="Arial, sans-serif" font-size="12" text-anchor="middle" fill="#333">feedback-loops</text>
    </g>
  </g>

  <!-- Arrow right -->
  <line x1="580" y1="535" x2="630" y2="535" stroke="#666" stroke-width="2" marker-end="url(#arrowhead)"/>

  <!-- Stage 5: System -->
  <g transform="translate(630, 460)">
    <rect x="0" y="0" width="280" height="150" rx="10" fill="#f3e5f5" stroke="#9C27B0" stroke-width="2" filter="url(#shadow)"/>
    <rect x="0" y="0" width="280" height="40" rx="10" fill="url(#systemGradient)"/>
    <text x="140" y="27" font-family="Arial, sans-serif" font-size="16" font-weight="bold" text-anchor="middle" fill="white">阶段5: 系统阶段</text>
    
    <!-- Skills -->
    <g transform="translate(20, 55)">
      <rect x="0" y="0" width="240" height="30" rx="5" fill="white" stroke="#9C27B0" stroke-width="1"/>
      <rect x="5" y="5" width="20" height="20" rx="3" fill="#F5A623"/>
      <text x="15" y="19" font-family="Arial, sans-serif" font-size="10" font-weight="bold" fill="white" text-anchor="middle">4</text>
      <text x="130" y="20" font-family="Arial, sans-serif" font-size="12" text-anchor="middle" fill="#333">component-spec</text>
    </g>
    <g transform="translate(20, 95)">
      <rect x="0" y="0" width="240" height="30" rx="5" fill="white" stroke="#9C27B0" stroke-width="1"/>
      <rect x="5" y="5" width="20" height="20" rx="3" fill="#607D8B"/>
      <text x="15" y="19" font-family="Arial, sans-serif" font-size="10" font-weight="bold" fill="white" text-anchor="middle">8</text>
      <text x="130" y="20" font-family="Arial, sans-serif" font-size="12" text-anchor="middle" fill="#333">accessibility</text>
    </g>
  </g>

  <!-- Arrow down -->
  <line x1="770" y1="610" x2="770" y2="650" stroke="#666" stroke-width="2" marker-end="url(#arrowhead)"/>

  <!-- Stage 6: Prototype -->
  <g transform="translate(630, 650)">
    <rect x="0" y="0" width="280" height="150" rx="10" fill="#e0f7fa" stroke="#00BCD4" stroke-width="2" filter="url(#shadow)"/>
    <rect x="0" y="0" width="280" height="40" rx="10" fill="url(#prototypeGradient)"/>
    <text x="140" y="27" font-family="Arial, sans-serif" font-size="16" font-weight="bold" text-anchor="middle" fill="white">阶段6: 原型阶段</text>
    
    <!-- Skills -->
    <g transform="translate(20, 55)">
      <rect x="0" y="0" width="240" height="30" rx="5" fill="white" stroke="#00BCD4" stroke-width="1"/>
      <rect x="5" y="5" width="20" height="20" rx="3" fill="#1976D2"/>
      <text x="15" y="19" font-family="Arial, sans-serif" font-size="10" font-weight="bold" fill="white" text-anchor="middle">7</text>
      <text x="130" y="20" font-family="Arial, sans-serif" font-size="12" text-anchor="middle" fill="#333">web-html-prototype</text>
    </g>
    <g transform="translate(20, 95)">
      <rect x="0" y="0" width="240" height="30" rx="5" fill="white" stroke="#00BCD4" stroke-width="1"/>
      <rect x="5" y="5" width="20" height="20" rx="3" fill="#1976D2"/>
      <text x="15" y="19" font-family="Arial, sans-serif" font-size="10" font-weight="bold" fill="white" text-anchor="middle">7</text>
      <text x="130" y="20" font-family="Arial, sans-serif" font-size="12" text-anchor="middle" fill="#333">app-html-prototype</text>
    </g>
  </g>

  <!-- Arrow left -->
  <line x1="630" y1="725" x2="580" y2="725" stroke="#666" stroke-width="2" marker-end="url(#arrowhead)"/>

  <!-- Stage 7: Ops -->
  <g transform="translate(300, 650)">
    <rect x="0" y="0" width="280" height="150" rx="10" fill="#eceff1" stroke="#607D8B" stroke-width="2" filter="url(#shadow)"/>
    <rect x="0" y="0" width="280" height="40" rx="10" fill="url(#opsGradient)"/>
    <text x="140" y="27" font-family="Arial, sans-serif" font-size="16" font-weight="bold" text-anchor="middle" fill="white">阶段7: 运营阶段</text>
    
    <!-- Skills -->
    <g transform="translate(20, 55)">
      <rect x="0" y="0" width="240" height="30" rx="5" fill="white" stroke="#607D8B" stroke-width="1"/>
      <rect x="5" y="5" width="20" height="20" rx="3" fill="#FF5722"/>
      <text x="15" y="19" font-family="Arial, sans-serif" font-size="10" font-weight="bold" fill="white" text-anchor="middle">9</text>
      <text x="130" y="20" font-family="Arial, sans-serif" font-size="12" text-anchor="middle" fill="#333">design-critique</text>
    </g>
    <g transform="translate(20, 95)">
      <rect x="0" y="0" width="240" height="30" rx="5" fill="white" stroke="#607D8B" stroke-width="1"/>
      <rect x="5" y="5" width="20" height="20" rx="3" fill="#1976D2"/>
      <text x="15" y="19" font-family="Arial, sans-serif" font-size="10" font-weight="bold" fill="white" text-anchor="middle">7</text>
      <text x="130" y="20" font-family="Arial, sans-serif" font-size="12" text-anchor="middle" fill="#333">handoff-spec</text>
    </g>
  </g>

  <!-- Prototype Output -->
  <g transform="translate(50, 700)">
    <rect x="0" y="0" width="200" height="60" rx="10" fill="#00BCD4" filter="url(#shadow)"/>
    <text x="100" y="25" font-family="Arial, sans-serif" font-size="14" font-weight="bold" text-anchor="middle" fill="white">Prototype</text>
    <text x="100" y="45" font-family="Arial, sans-serif" font-size="12" text-anchor="middle" fill="#ccc">可交互原型</text>
  </g>

  <!-- Arrow from Ops to Prototype -->
  <line x1="300" y1="725" x2="250" y2="725" stroke="#666" stroke-width="2" marker-end="url(#arrowhead)"/>

  <!-- Legend -->
  <g transform="translate(950, 100)">
    <text x="0" y="0" font-family="Arial, sans-serif" font-size="14" font-weight="bold" fill="#333">阶段图例</text>
    
    <rect x="0" y="20" width="20" height="20" fill="url(#prepGradient)"/>
    <text x="30" y="35" font-family="Arial, sans-serif" font-size="12" fill="#333">准备阶段</text>
    
    <rect x="0" y="50" width="20" height="20" fill="url(#researchGradient)"/>
    <text x="30" y="65" font-family="Arial, sans-serif" font-size="12" fill="#333">研究阶段</text>
    
    <rect x="0" y="80" width="20" height="20" fill="url(#strategyGradient)"/>
    <text x="30" y="95" font-family="Arial, sans-serif" font-size="12" fill="#333">策略阶段</text>
    
    <rect x="0" y="110" width="20" height="20" fill="url(#designGradient)"/>
    <text x="30" y="125" font-family="Arial, sans-serif" font-size="12" fill="#333">设计阶段</text>
    
    <rect x="0" y="140" width="20" height="20" fill="url(#interactionGradient)"/>
    <text x="30" y="155" font-family="Arial, sans-serif" font-size="12" fill="#333">交互阶段</text>
    
    <rect x="0" y="170" width="20" height="20" fill="url(#systemGradient)"/>
    <text x="30" y="185" font-family="Arial, sans-serif" font-size="12" fill="#333">系统阶段</text>
    
    <rect x="0" y="200" width="20" height="20" fill="url(#prototypeGradient)"/>
    <text x="30" y="215" font-family="Arial, sans-serif" font-size="12" fill="#333">原型阶段</text>
    
    <rect x="0" y="230" width="20" height="20" fill="url(#opsGradient)"/>
    <text x="30" y="245" font-family="Arial, sans-serif" font-size="12" fill="#333">运营阶段</text>
  </g>

  <!-- Role Legend -->
  <g transform="translate(950, 400)">
    <text x="0" y="0" font-family="Arial, sans-serif" font-size="14" font-weight="bold" fill="#333">角色图例</text>
    
    <rect x="0" y="20" width="15" height="15" fill="#4A90E2"/>
    <text x="5" y="32" font-family="Arial, sans-serif" font-size="10" font-weight="bold" fill="white" text-anchor="middle">1</text>
    <text x="25" y="32" font-family="Arial, sans-serif" font-size="11" fill="#333">design-strategist</text>
    
    <rect x="0" y="45" width="15" height="15" fill="#50E3C2"/>
    <text x="5" y="57" font-family="Arial, sans-serif" font-size="10" font-weight="bold" fill="white" text-anchor="middle">2</text>
    <text x="25" y="57" font-family="Arial, sans-serif" font-size="11" fill="#333">design-scout</text>
    
    <rect x="0" y="70" width="15" height="15" fill="#9C27B0"/>
    <text x="5" y="82" font-family="Arial, sans-serif" font-size="10" font-weight="bold" fill="white" text-anchor="middle">3</text>
    <text x="25" y="82" font-family="Arial, sans-serif" font-size="11" fill="#333">inspiration-scout</text>
    
    <rect x="0" y="95" width="15" height="15" fill="#F5A623"/>
    <text x="5" y="107" font-family="Arial, sans-serif" font-size="10" font-weight="bold" fill="white" text-anchor="middle">4</text>
    <text x="25" y="107" font-family="Arial, sans-serif" font-size="11" fill="#333">design-lead</text>
    
    <rect x="0" y="120" width="15" height="15" fill="#E91E63"/>
    <text x="5" y="132" font-family="Arial, sans-serif" font-size="10" font-weight="bold" fill="white" text-anchor="middle">5</text>
    <text x="25" y="132" font-family="Arial, sans-serif" font-size="11" fill="#333">motion-designer</text>
    
    <rect x="0" y="145" width="15" height="15" fill="#4CAF50"/>
    <text x="5" y="157" font-family="Arial, sans-serif" font-size="10" font-weight="bold" fill="white" text-anchor="middle">6</text>
    <text x="25" y="157" font-family="Arial, sans-serif" font-size="11" fill="#333">content-writer</text>
    
    <rect x="0" y="170" width="15" height="15" fill="#1976D2"/>
    <text x="5" y="182" font-family="Arial, sans-serif" font-size="10" font-weight="bold" fill="white" text-anchor="middle">7</text>
    <text x="25" y="182" font-family="Arial, sans-serif" font-size="11" fill="#333">design-builder</text>
    
    <rect x="0" y="195" width="15" height="15" fill="#607D8B"/>
    <text x="5" y="207" font-family="Arial, sans-serif" font-size="10" font-weight="bold" fill="white" text-anchor="middle">8</text>
    <text x="25" y="207" font-family="Arial, sans-serif" font-size="11" fill="#333">accessibility-reviewer</text>
    
    <rect x="0" y="220" width="15" height="15" fill="#FF5722"/>
    <text x="5" y="232" font-family="Arial, sans-serif" font-size="10" font-weight="bold" fill="white" text-anchor="middle">9</text>
    <text x="25" y="232" font-family="Arial, sans-serif" font-size="11" fill="#333">design-critic</text>
  </g>

  <!-- MVP Path -->
  <g transform="translate(950, 650)">
    <text x="0" y="0" font-family="Arial, sans-serif" font-size="14" font-weight="bold" fill="#333">最小可行路径 (MVP Path)</text>
    <text x="0" y="30" font-family="Arial, sans-serif" font-size="12" fill="#666">PRD → design-tokens</text>
    <text x="0" y="50" font-family="Arial, sans-serif" font-size="12" fill="#666">→ web-html-prototype</text>
    <text x="0" y="70" font-family="Arial, sans-serif" font-size="12" fill="#666">→ 用户反馈</text>
    <line x1="0" y1="90" x2="150" y2="90" stroke="#333" stroke-width="2"/>
    <text x="0" y="110" font-family="Arial, sans-serif" font-size="11" fill="#999">适用: 早期验证、概念Demo</text>
  </g>

  <!-- Full Path -->
  <g transform="translate(950, 800)">
    <text x="0" y="0" font-family="Arial, sans-serif" font-size="14" font-weight="bold" fill="#333">完整路径 (Full Path)</text>
    <text x="0" y="30" font-family="Arial, sans-serif" font-size="12" fill="#666">PRD → 研究阶段</text>
    <text x="0" y="50" font-family="Arial, sans-serif" font-size="12" fill="#666">→ 策略阶段</text>
    <text x="0" y="70" font-family="Arial, sans-serif" font-size="12" fill="#666">→ 设计阶段</text>
    <text x="0" y="90" font-family="Arial, sans-serif" font-size="12" fill="#666">→ 交互阶段</text>
    <text x="0" y="110" font-family="Arial, sans-serif" font-size="12" fill="#666">→ 系统阶段</text>
    <text x="0" y="130" font-family="Arial, sans-serif" font-size="12" fill="#666">→ 原型阶段</text>
    <text x="0" y="150" font-family="Arial, sans-serif" font-size="12" fill="#666">→ 运营阶段</text>
    <line x1="0" y1="170" x2="150" y2="170" stroke="#333" stroke-width="2"/>
    <text x="0" y="190" font-family="Arial, sans-serif" font-size="11" fill="#999">适用: 正式产品开发</text>
  </g>
</svg>
