<svg width="1600" height="1200" xmlns="http://www.w3.org/2000/svg">
  <defs>
    <!-- Gradients -->
    <linearGradient id="inputGradient" x1="0%" y1="0%" x2="100%" y2="100%">
      <stop offset="0%" style="stop-color:#333;stop-opacity:1" />
      <stop offset="100%" style="stop-color:#000;stop-opacity:1" />
    </linearGradient>
    <linearGradient id="orchestrationGradient" x1="0%" y1="0%" x2="100%" y2="100%">
      <stop offset="0%" style="stop-color:#FF5722;stop-opacity:1" />
      <stop offset="100%" style="stop-color:#E64A19;stop-opacity:1" />
    </linearGradient>
    <linearGradient id="explorationGradient" x1="0%" y1="0%" x2="100%" y2="100%">
      <stop offset="0%" style="stop-color:#2196F3;stop-opacity:1" />
      <stop offset="100%" style="stop-color:#1976D2;stop-opacity:1" />
    </linearGradient>
    <linearGradient id="iterationGradient" x1="0%" y1="0%" x2="100%" y2="100%">
      <stop offset="0%" style="stop-color:#9C27B0;stop-opacity:1" />
      <stop offset="100%" style="stop-color:#7B1FA2;stop-opacity:1" />
    </linearGradient>
    <linearGradient id="qualityGradient" x1="0%" y1="0%" x2="100%" y2="100%">
      <stop offset="0%" style="stop-color:#4CAF50;stop-opacity:1" />
      <stop offset="100%" style="stop-color:#388E3C;stop-opacity:1" />
    </linearGradient>
    <linearGradient id="evaluationGradient" x1="0%" y1="0%" x2="100%" y2="100%">
      <stop offset="0%" style="stop-color:#00BCD4;stop-opacity:1" />
      <stop offset="100%" style="stop-color:#0097A7;stop-opacity:1" />
    </linearGradient>
    <linearGradient id="decisionGradient" x1="0%" y1="0%" x2="100%" y2="100%">
      <stop offset="0%" style="stop-color:#FF9800;stop-opacity:1" />
      <stop offset="100%" style="stop-color:#F57C00;stop-opacity:1" />
    </linearGradient>
    <linearGradient id="designGradient" x1="0%" y1="0%" x2="100%" y2="100%">
      <stop offset="0%" style="stop-color:#607D8B;stop-opacity:1" />
      <stop offset="100%" style="stop-color:#455A64;stop-opacity:1" />
    </linearGradient>
    <linearGradient id="reviewGradient" x1="0%" y1="0%" x2="100%" y2="100%">
      <stop offset="0%" style="stop-color:#E91E63;stop-opacity:1" />
      <stop offset="100%" style="stop-color:#C2185B;stop-opacity:1" />
    </linearGradient>
    <linearGradient id="outputGradient" x1="0%" y1="0%" x2="100%" y2="100%">
      <stop offset="0%" style="stop-color:#4CAF50;stop-opacity:1" />
      <stop offset="100%" style="stop-color:#388E3C;stop-opacity:1" />
    </linearGradient>
    
    <!-- Shadow filter -->
    <filter id="shadow" x="-20%" y="-20%" width="140%" height="140%">
      <feDropShadow dx="2" dy="2" stdDeviation="3" flood-color="#000" flood-opacity="0.2"/>
    </filter>
    
    <!-- Arrow marker -->
    <marker id="arrowhead" markerWidth="10" markerHeight="7" refX="9" refY="3.5" orient="auto">
      <polygon points="0 0, 10 3.5, 0 7" fill="#666"/>
    </marker>
  </defs>

  <!-- Background -->
  <rect width="100%" height="100%" fill="#f8f9fa"/>

  <!-- Title -->
  <text x="800" y="40" font-family="Arial, sans-serif" font-size="28" font-weight="bold" text-anchor="middle" fill="#333">
    Requirement to Task Workflow
  </text>
  <text x="800" y="70" font-family="Arial, sans-serif" font-size="16" text-anchor="middle" fill="#666">
    从一句话需求到任务完成的RAMS框架执行流程
  </text>

  <!-- Input: One-sentence requirement -->
  <g transform="translate(50, 100)">
    <rect x="0" y="0" width="250" height="60" rx="10" fill="url(#inputGradient)" filter="url(#shadow)"/>
    <text x="125" y="25" font-family="Arial, sans-serif" font-size="14" font-weight="bold" text-anchor="middle" fill="white">一句话需求</text>
    <text x="125" y="45" font-family="Arial, sans-serif" font-size="12" text-anchor="middle" fill="#ccc">"设计一个电商App首页"</text>
  </g>

  <!-- Arrow -->
  <line x1="300" y1="130" x2="350" y2="130" stroke="#666" stroke-width="2" marker-end="url(#arrowhead)"/>

  <!-- Stage 1: Workshop Orchestration -->
  <g transform="translate(350, 80)">
    <rect x="0" y="0" width="300" height="100" rx="10" fill="#fff3e0" stroke="#FF5722" stroke-width="2" filter="url(#shadow)"/>
    <rect x="0" y="0" width="300" height="40" rx="10" fill="url(#orchestrationGradient)"/>
    <text x="150" y="27" font-family="Arial, sans-serif" font-size="16" font-weight="bold" text-anchor="middle" fill="white">阶段1: 工作坊编排</text>
    
    <!-- Skill -->
    <g transform="translate(20, 55)">
      <rect x="0" y="0" width="260" height="30" rx="5" fill="white" stroke="#FF5722" stroke-width="1"/>
      <rect x="5" y="5" width="20" height="20" rx="3" fill="#333"/>
      <text x="15" y="19" font-family="Arial, sans-serif" font-size="10" font-weight="bold" fill="white" text-anchor="middle">0</text>
      <text x="130" y="20" font-family="Arial, sans-serif" font-size="12" text-anchor="middle" fill="#333">workshop-orchestration</text>
    </g>
  </g>

  <!-- Arrow -->
  <line x1="650" y1="130" x2="700" y2="130" stroke="#666" stroke-width="2" marker-end="url(#arrowhead)"/>

  <!-- Stage 2: Direction Generation -->
  <g transform="translate(700, 80)">
    <rect x="0" y="0" width="300" height="100" rx="10" fill="#e3f2fd" stroke="#2196F3" stroke-width="2" filter="url(#shadow)"/>
    <rect x="0" y="0" width="300" height="40" rx="10" fill="url(#explorationGradient)"/>
    <text x="150" y="27" font-family="Arial, sans-serif" font-size="16" font-weight="bold" text-anchor="middle" fill="white">阶段2: 方向生成</text>
    
    <!-- Skill -->
    <g transform="translate(20, 55)">
      <rect x="0" y="0" width="260" height="30" rx="5" fill="white" stroke="#2196F3" stroke-width="1"/>
      <rect x="5" y="5" width="20" height="20" rx="3" fill="#333"/>
      <text x="15" y="19" font-family="Arial, sans-serif" font-size="10" font-weight="bold" fill="white" text-anchor="middle">0</text>
      <text x="130" y="20" font-family="Arial, sans-serif" font-size="12" text-anchor="middle" fill="#333">direction-generation</text>
    </g>
  </g>

  <!-- Arrow down -->
  <line x1="850" y1="180" x2="850" y2="220" stroke="#666" stroke-width="2" marker-end="url(#arrowhead)"/>

  <!-- Stage 3: Parallel Exploration -->
  <g transform="translate(700, 220)">
    <rect x="0" y="0" width="300" height="100" rx="10" fill="#e3f2fd" stroke="#2196F3" stroke-width="2" filter="url(#shadow)"/>
    <rect x="0" y="0" width="300" height="40" rx="10" fill="url(#explorationGradient)"/>
    <text x="150" y="27" font-family="Arial, sans-serif" font-size="16" font-weight="bold" text-anchor="middle" fill="white">阶段3: 并行探索</text>
    
    <!-- Skill -->
    <g transform="translate(20, 55)">
      <rect x="0" y="0" width="260" height="30" rx="5" fill="white" stroke="#2196F3" stroke-width="1"/>
      <rect x="5" y="5" width="20" height="20" rx="3" fill="#333"/>
      <text x="15" y="19" font-family="Arial, sans-serif" font-size="10" font-weight="bold" fill="white" text-anchor="middle">0</text>
      <text x="130" y="20" font-family="Arial, sans-serif" font-size="12" text-anchor="middle" fill="#333">parallel-exploration</text>
    </g>
  </g>

  <!-- Arrow left -->
  <line x1="700" y1="270" x2="650" y2="270" stroke="#666" stroke-width="2" marker-end="url(#arrowhead)"/>

  <!-- Stage 4: Iteration Controller -->
  <g transform="translate(350, 220)">
    <rect x="0" y="0" width="300" height="150" rx="10" fill="#f3e5f5" stroke="#9C27B0" stroke-width="2" filter="url(#shadow)"/>
    <rect x="0" y="0" width="300" height="40" rx="10" fill="url(#iterationGradient)"/>
    <text x="150" y="27" font-family="Arial, sans-serif" font-size="16" font-weight="bold" text-anchor="middle" fill="white">阶段4: 迭代优化</text>
    
    <!-- Skills -->
    <g transform="translate(20, 55)">
      <rect x="0" y="0" width="260" height="25" rx="5" fill="white" stroke="#9C27B0" stroke-width="1"/>
      <rect x="5" y="3" width="18" height="18" rx="3" fill="#333"/>
      <text x="14" y="16" font-family="Arial, sans-serif" font-size="9" font-weight="bold" fill="white" text-anchor="middle">0</text>
      <text x="130" y="17" font-family="Arial, sans-serif" font-size="11" text-anchor="middle" fill="#333">iteration-controller</text>
    </g>
    <g transform="translate(20, 90)">
      <rect x="0" y="0" width="125" height="25" rx="5" fill="white" stroke="#9C27B0" stroke-width="1"/>
      <rect x="5" y="3" width="18" height="18" rx="3" fill="#333"/>
      <text x="14" y="16" font-family="Arial, sans-serif" font-size="9" font-weight="bold" fill="white" text-anchor="middle">0</text>
      <text x="62" y="17" font-family="Arial, sans-serif" font-size="10" text-anchor="middle" fill="#333">variation-generation</text>
    </g>
    <g transform="translate(155, 90)">
      <rect x="0" y="0" width="125" height="25" rx="5" fill="white" stroke="#9C27B0" stroke-width="1"/>
      <rect x="5" y="3" width="18" height="18" rx="3" fill="#333"/>
      <text x="14" y="16" font-family="Arial, sans-serif" font-size="9" font-weight="bold" fill="white" text-anchor="middle">0</text>
      <text x="62" y="17" font-family="Arial, sans-serif" font-size="10" text-anchor="middle" fill="#333">combination-engineering</text>
    </g>
  </g>

  <!-- Arrow down -->
  <line x1="500" y1="370" x2="500" y2="410" stroke="#666" stroke-width="2" marker-end="url(#arrowhead)"/>

  <!-- Stage 5: Quality Gate -->
  <g transform="translate(350, 410)">
    <rect x="0" y="0" width="300" height="100" rx="10" fill="#e8f5e9" stroke="#4CAF50" stroke-width="2" filter="url(#shadow)"/>
    <rect x="0" y="0" width="300" height="40" rx="10" fill="url(#qualityGradient)"/>
    <text x="150" y="27" font-family="Arial, sans-serif" font-size="16" font-weight="bold" text-anchor="middle" fill="white">阶段5: 质量门</text>
    
    <!-- Skill -->
    <g transform="translate(20, 55)">
      <rect x="0" y="0" width="260" height="30" rx="5" fill="white" stroke="#4CAF50" stroke-width="1"/>
      <rect x="5" y="5" width="20" height="20" rx="3" fill="#333"/>
      <text x="15" y="19" font-family="Arial, sans-serif" font-size="10" font-weight="bold" fill="white" text-anchor="middle">0</text>
      <text x="130" y="20" font-family="Arial, sans-serif" font-size="12" text-anchor="middle" fill="#333">quality-gate</text>
    </g>
  </g>

  <!-- Arrow right -->
  <line x1="650" y1="460" x2="700" y2="460" stroke="#666" stroke-width="2" marker-end="url(#arrowhead)"/>

  <!-- Stage 6: Evaluation & Convergence -->
  <g transform="translate(700, 410)">
    <rect x="0" y="0" width="300" height="150" rx="10" fill="#e0f7fa" stroke="#00BCD4" stroke-width="2" filter="url(#shadow)"/>
    <rect x="0" y="0" width="300" height="40" rx="10" fill="url(#evaluationGradient)"/>
    <text x="150" y="27" font-family="Arial, sans-serif" font-size="16" font-weight="bold" text-anchor="middle" fill="white">阶段6: 评估与收敛</text>
    
    <!-- Skills -->
    <g transform="translate(20, 55)">
      <rect x="0" y="0" width="260" height="25" rx="5" fill="white" stroke="#00BCD4" stroke-width="1"/>
      <rect x="5" y="3" width="18" height="18" rx="3" fill="#333"/>
      <text x="14" y="16" font-family="Arial, sans-serif" font-size="9" font-weight="bold" fill="white" text-anchor="middle">0</text>
      <text x="130" y="17" font-family="Arial, sans-serif" font-size="11" text-anchor="middle" fill="#333">multi-criteria-evaluation</text>
    </g>
    <g transform="translate(20, 90)">
      <rect x="0" y="0" width="125" height="25" rx="5" fill="white" stroke="#00BCD4" stroke-width="1"/>
      <rect x="5" y="3" width="18" height="18" rx="3" fill="#333"/>
      <text x="14" y="16" font-family="Arial, sans-serif" font-size="9" font-weight="bold" fill="white" text-anchor="middle">0</text>
      <text x="62" y="17" font-family="Arial, sans-serif" font-size="10" text-anchor="middle" fill="#333">tradeoff-analysis</text>
    </g>
    <g transform="translate(155, 90)">
      <rect x="0" y="0" width="125" height="25" rx="5" fill="white" stroke="#00BCD4" stroke-width="1"/>
      <rect x="5" y="3" width="18" height="18" rx="3" fill="#333"/>
      <text x="14" y="16" font-family="Arial, sans-serif" font-size="9" font-weight="bold" fill="white" text-anchor="middle">0</text>
      <text x="62" y="17" font-family="Arial, sans-serif" font-size="10" text-anchor="middle" fill="#333">convergence-detection</text>
    </g>
  </g>

  <!-- Arrow down -->
  <line x1="850" y1="560" x2="850" y2="600" stroke="#666" stroke-width="2" marker-end="url(#arrowhead)"/>

  <!-- Stage 7: Coordination & Decision -->
  <g transform="translate(700, 600)">
    <rect x="0" y="0" width="300" height="150" rx="10" fill="#fff3e0" stroke="#FF9800" stroke-width="2" filter="url(#shadow)"/>
    <rect x="0" y="0" width="300" height="40" rx="10" fill="url(#decisionGradient)"/>
    <text x="150" y="27" font-family="Arial, sans-serif" font-size="16" font-weight="bold" text-anchor="middle" fill="white">阶段7: 协调与决策</text>
    
    <!-- Skills -->
    <g transform="translate(20, 55)">
      <rect x="0" y="0" width="260" height="25" rx="5" fill="white" stroke="#FF9800" stroke-width="1"/>
      <rect x="5" y="3" width="18" height="18" rx="3" fill="#333"/>
      <text x="14" y="16" font-family="Arial, sans-serif" font-size="9" font-weight="bold" fill="white" text-anchor="middle">0</text>
      <text x="130" y="17" font-family="Arial, sans-serif" font-size="11" text-anchor="middle" fill="#333">decision-making</text>
    </g>
    <g transform="translate(20, 90)">
      <rect x="0" y="0" width="125" height="25" rx="5" fill="white" stroke="#FF9800" stroke-width="1"/>
      <rect x="5" y="3" width="18" height="18" rx="3" fill="#333"/>
      <text x="14" y="16" font-family="Arial, sans-serif" font-size="9" font-weight="bold" fill="white" text-anchor="middle">0</text>
      <text x="62" y="17" font-family="Arial, sans-serif" font-size="10" text-anchor="middle" fill="#333">conflict-resolution</text>
    </g>
    <g transform="translate(155, 90)">
      <rect x="0" y="0" width="125" height="25" rx="5" fill="white" stroke="#FF9800" stroke-width="1"/>
      <rect x="5" y="3" width="18" height="18" rx="3" fill="#333"/>
      <text x="14" y="16" font-family="Arial, sans-serif" font-size="9" font-weight="bold" fill="white" text-anchor="middle">0</text>
      <text x="62" y="17" font-family="Arial, sans-serif" font-size="10" text-anchor="middle" fill="#333">result-synthesis</text>
    </g>
  </g>

  <!-- Arrow left -->
  <line x1="700" y1="675" x2="650" y2="675" stroke="#666" stroke-width="2" marker-end="url(#arrowhead)"/>

  <!-- Stage 8: Design Skills Execution -->
  <g transform="translate(350, 600)">
    <rect x="0" y="0" width="300" height="200" rx="10" fill="#eceff1" stroke="#607D8B" stroke-width="2" filter="url(#shadow)"/>
    <rect x="0" y="0" width="300" height="40" rx="10" fill="url(#designGradient)"/>
    <text x="150" y="27" font-family="Arial, sans-serif" font-size="16" font-weight="bold" text-anchor="middle" fill="white">阶段8: 设计技能执行</text>
    
    <!-- Skills -->
    <g transform="translate(20, 55)">
      <rect x="0" y="0" width="260" height="20" rx="5" fill="white" stroke="#607D8B" stroke-width="1"/>
      <rect x="5" y="2" width="16" height="16" rx="3" fill="#4A90E2"/>
      <text x="13" y="14" font-family="Arial, sans-serif" font-size="9" font-weight="bold" fill="white" text-anchor="middle">1</text>
      <text x="130" y="14" font-family="Arial, sans-serif" font-size="10" text-anchor="middle" fill="#333">user-persona</text>
    </g>
    <g transform="translate(20, 80)">
      <rect x="0" y="0" width="260" height="20" rx="5" fill="white" stroke="#607D8B" stroke-width="1"/>
      <rect x="5" y="2" width="16" height="16" rx="3" fill="#4A90E2"/>
      <text x="13" y="14" font-family="Arial, sans-serif" font-size="9" font-weight="bold" fill="white" text-anchor="middle">1</text>
      <text x="130" y="14" font-family="Arial, sans-serif" font-size="10" text-anchor="middle" fill="#333">journey-map</text>
    </g>
    <g transform="translate(20, 105)">
      <rect x="0" y="0" width="260" height="20" rx="5" fill="white" stroke="#607D8B" stroke-width="1"/>
      <rect x="5" y="2" width="16" height="16" rx="3" fill="#4A90E2"/>
      <text x="13" y="14" font-family="Arial, sans-serif" font-size="9" font-weight="bold" fill="white" text-anchor="middle">1</text>
      <text x="130" y="14" font-family="Arial, sans-serif" font-size="10" text-anchor="middle" fill="#333">design-principles</text>
    </g>
    <g transform="translate(20, 130)">
      <rect x="0" y="0" width="260" height="20" rx="5" fill="white" stroke="#607D8B" stroke-width="1"/>
      <rect x="5" y="2" width="16" height="16" rx="3" fill="#F5A623"/>
      <text x="13" y="14" font-family="Arial, sans-serif" font-size="9" font-weight="bold" fill="white" text-anchor="middle">4</text>
      <text x="130" y="14" font-family="Arial, sans-serif" font-size="10" text-anchor="middle" fill="#333">design-tokens</text>
    </g>
    <g transform="translate(20, 155)">
      <rect x="0" y="0" width="260" height="20" rx="5" fill="white" stroke="#607D8B" stroke-width="1"/>
      <rect x="5" y="2" width="16" height="16" rx="3" fill="#1976D2"/>
      <text x="13" y="14" font-family="Arial, sans-serif" font-size="9" font-weight="bold" fill="white" text-anchor="middle">7</text>
      <text x="130" y="14" font-family="Arial, sans-serif" font-size="10" text-anchor="middle" fill="#333">web-html-prototype</text>
    </g>
  </g>

  <!-- Arrow down -->
  <line x1="500" y1="800" x2="500" y2="840" stroke="#666" stroke-width="2" marker-end="url(#arrowhead)"/>

  <!-- Stage 9: Review & Verification -->
  <g transform="translate(350, 840)">
    <rect x="0" y="0" width="300" height="100" rx="10" fill="#fce4ec" stroke="#E91E63" stroke-width="2" filter="url(#shadow)"/>
    <rect x="0" y="0" width="300" height="40" rx="10" fill="url(#reviewGradient)"/>
    <text x="150" y="27" font-family="Arial, sans-serif" font-size="16" font-weight="bold" text-anchor="middle" fill="white">阶段9: 评审与验证</text>
    
    <!-- Skills -->
    <g transform="translate(20, 55)">
      <rect x="0" y="0" width="125" height="30" rx="5" fill="white" stroke="#E91E63" stroke-width="1"/>
      <rect x="5" y="5" width="20" height="20" rx="3" fill="#FF5722"/>
      <text x="15" y="19" font-family="Arial, sans-serif" font-size="10" font-weight="bold" fill="white" text-anchor="middle">9</text>
      <text x="62" y="20" font-family="Arial, sans-serif" font-size="11" text-anchor="middle" fill="#333">design-critique</text>
    </g>
    <g transform="translate(155, 55)">
      <rect x="0" y="0" width="125" height="30" rx="5" fill="white" stroke="#E91E63" stroke-width="1"/>
      <rect x="5" y="5" width="20" height="20" rx="3" fill="#607D8B"/>
      <text x="15" y="19" font-family="Arial, sans-serif" font-size="10" font-weight="bold" fill="white" text-anchor="middle">8</text>
      <text x="62" y="20" font-family="Arial, sans-serif" font-size="11" text-anchor="middle" fill="#333">verification</text>
    </g>
  </g>

  <!-- Arrow left -->
  <line x1="350" y1="890" x2="300" y2="890" stroke="#666" stroke-width="2" marker-end="url(#arrowhead)"/>

  <!-- Output: Completed Task -->
  <g transform="translate(50, 860)">
    <rect x="0" y="0" width="250" height="60" rx="10" fill="url(#outputGradient)" filter="url(#shadow)"/>
    <text x="125" y="25" font-family="Arial, sans-serif" font-size="14" font-weight="bold" text-anchor="middle" fill="white">任务完成</text>
    <text x="125" y="45" font-family="Arial, sans-serif" font-size="12" text-anchor="middle" fill="#ccc">设计方案交付</text>
  </g>

  <!-- RAMS Framework Info -->
  <g transform="translate(1050, 100)">
    <rect x="0" y="0" width="500" height="250" rx="10" fill="#fff" stroke="#333" stroke-width="2" filter="url(#shadow)"/>
    <text x="250" y="30" font-family="Arial, sans-serif" font-size="18" font-weight="bold" text-anchor="middle" fill="#333">RAMS框架核心概念</text>
    
    <text x="20" y="60" font-family="Arial, sans-serif" font-size="14" font-weight="bold" fill="#FF5722">角色 (Role)</text>
    <text x="20" y="80" font-family="Arial, sans-serif" font-size="12" fill="#666">designer-role - 拥有39个设计技能</text>
    
    <text x="20" y="110" font-family="Arial, sans-serif" font-size="14" font-weight="bold" fill="#2196F3">技能 (Skills)</text>
    <text x="20" y="130" font-family="Arial, sans-serif" font-size="12" fill="#666">设计专业技能 + AI工作坊编排技能</text>
    
    <text x="20" y="160" font-family="Arial, sans-serif" font-size="14" font-weight="bold" fill="#9C27B0">演员 (Actor)</text>
    <text x="20" y="180" font-family="Arial, sans-serif" font-size="12" fill="#666">具体LLM模型 (GPT-4, Claude等)</text>
    
    <text x="20" y="210" font-family="Arial, sans-serif" font-size="14" font-weight="bold" fill="#4CAF50">实例 (Instance)</text>
    <text x="20" y="230" font-family="Arial, sans-serif" font-size="12" fill="#666">角色 + 演员的具体实例</text>
  </g>

  <!-- Role Legend -->
  <g transform="translate(1050, 380)">
    <text x="0" y="0" font-family="Arial, sans-serif" font-size="14" font-weight="bold" fill="#333">角色图例</text>
    
    <rect x="0" y="20" width="15" height="15" fill="#333"/>
    <text x="5" y="32" font-family="Arial, sans-serif" font-size="10" font-weight="bold" fill="white" text-anchor="middle">0</text>
    <text x="25" y="32" font-family="Arial, sans-serif" font-size="11" fill="#333">designer-role (AI工作坊编排)</text>
    
    <rect x="0" y="45" width="15" height="15" fill="#4A90E2"/>
    <text x="5" y="57" font-family="Arial, sans-serif" font-size="10" font-weight="bold" fill="white" text-anchor="middle">1</text>
    <text x="25" y="57" font-family="Arial, sans-serif" font-size="11" fill="#333">design-strategist</text>
    
    <rect x="0" y="70" width="15" height="15" fill="#F5A623"/>
    <text x="5" y="82" font-family="Arial, sans-serif" font-size="10" font-weight="bold" fill="white" text-anchor="middle">4</text>
    <text x="25" y="82" font-family="Arial, sans-serif" font-size="11" fill="#333">design-lead</text>
    
    <rect x="0" y="95" width="15" height="15" fill="#E91E63"/>
    <text x="5" y="107" font-family="Arial, sans-serif" font-size="10" font-weight="bold" fill="white" text-anchor="middle">5</text>
    <text x="25" y="107" font-family="Arial, sans-serif" font-size="11" fill="#333">motion-designer</text>
    
    <rect x="0" y="120" width="15" height="15" fill="#607D8B"/>
    <text x="5" y="132" font-family="Arial, sans-serif" font-size="10" font-weight="bold" fill="white" text-anchor="middle">8</text>
    <text x="25" y="132" font-family="Arial, sans-serif" font-size="11" fill="#333">accessibility-reviewer</text>
    
    <rect x="0" y="145" width="15" height="15" fill="#1976D2"/>
    <text x="5" y="157" font-family="Arial, sans-serif" font-size="10" font-weight="bold" fill="white" text-anchor="middle">7</text>
    <text x="25" y="157" font-family="Arial, sans-serif" font-size="11" fill="#333">design-builder</text>
    
    <rect x="0" y="170" width="15" height="15" fill="#FF5722"/>
    <text x="5" y="182" font-family="Arial, sans-serif" font-size="10" font-weight="bold" fill="white" text-anchor="middle">9</text>
    <text x="25" y="182" font-family="Arial, sans-serif" font-size="11" fill="#333">design-critic</text>
  </g>

  <!-- Role Instantiation -->
  <g transform="translate(1050, 590)">
    <rect x="0" y="0" width="500" height="200" rx="10" fill="#f5f5f5" stroke="#666" stroke-width="2" filter="url(#shadow)"/>
    <text x="250" y="30" font-family="Arial, sans-serif" font-size="18" font-weight="bold" text-anchor="middle" fill="#333">角色实例化流程</text>
    
    <text x="20" y="60" font-family="Arial, sans-serif" font-size="12" fill="#333">1. 召集角色: designer-role</text>
    <text x="20" y="80" font-family="Arial, sans-serif" font-size="12" fill="#333">2. 选择演员: GPT-4 / Claude</text>
    <text x="20" y="100" font-family="Arial, sans-serif" font-size="12" fill="#333">3. 创建实例: role_instance</text>
    <text x="20" y="120" font-family="Arial, sans-serif" font-size="12" fill="#333">4. 加载技能: workshop-orchestration</text>
    <text x="20" y="140" font-family="Arial, sans-serif" font-size="12" fill="#333">5. 执行任务: execute_skill()</text>
    
    <line x1="20" y1="160" x2="480" y2="160" stroke="#333" stroke-width="1"/>
    <text x="20" y="180" font-family="Arial, sans-serif" font-size="11" fill="#999">通过RAMS框架实现自动化编排</text>
  </g>

  <!-- MVP Path -->
  <g transform="translate(1050, 820)">
    <rect x="0" y="0" width="500" height="150" rx="10" fill="#e8f5e9" stroke="#4CAF50" stroke-width="2" filter="url(#shadow)"/>
    <text x="250" y="30" font-family="Arial, sans-serif" font-size="18" font-weight="bold" text-anchor="middle" fill="#333">最小可行路径 (MVP Path)</text>
    
    <text x="20" y="60" font-family="Arial, sans-serif" font-size="12" fill="#333">一句话需求</text>
    <text x="20" y="80" font-family="Arial, sans-serif" font-size="12" fill="#333">→ workshop-orchestration</text>
    <text x="20" y="100" font-family="Arial, sans-serif" font-size="12" fill="#333">→ direction-generation</text>
    <text x="20" y="120" font-family="Arial, sans-serif" font-size="12" fill="#333">→ user-persona + design-tokens</text>
    <text x="20" y="140" font-family="Arial, sans-serif" font-size="12" fill="#333">→ web-html-prototype</text>
  </g>
</svg>
